<svg width="24" height="24" viewBox="0 0 24 24" fill="none" xmlns="http://www.w3.org/2000/svg">
<path d="M7.05305 3.4998C5.68305 4.8798 5.68305 7.0998 7.05305 8.4698L15.543 16.9498C16.123 17.5398 16.123 18.4998 15.543 19.0698C14.953 19.6598 14.003 19.6598 13.413 19.0698L9.17305 14.8298L10.233 13.7698L6.70305 10.2298L6.34305 10.5898L4.93305 9.1698C4.54305 8.7798 3.91305 8.7798 3.50305 9.1698L2.10305 10.5898C1.71305 10.9998 1.71305 11.6098 2.10305 11.9998L3.50305 13.4098L3.16305 13.7698L6.70305 17.2998L7.76305 16.2398L12.003 20.4998C13.373 21.8498 15.583 21.8498 16.953 20.4998C18.323 19.1198 18.323 16.8998 16.953 15.5398L8.46305 7.0498C7.88305 6.4598 7.88305 5.4998 8.46305 4.9298C9.05305 4.3398 10.003 4.3398 10.593 4.9298L14.833 9.1698L13.773 10.2298L17.303 13.7698L17.663 13.4098L19.073 14.8298C19.463 15.2198 20.103 15.2198 20.503 14.8298L21.903 13.4098C22.293 12.9998 22.293 12.3898 21.903 11.9998L20.503 10.5898L20.843 10.2298L17.303 6.6998L16.243 7.7598L12.003 3.4998C10.633 2.1498 8.42305 2.1498 7.05305 3.4998ZM2.81305 11.2898L4.22305 9.8798L5.64305 11.2898L4.22305 12.7098M18.363 12.7098L19.783 11.2898L21.193 12.7098L19.783 14.1198L18.363 12.7098Z" fill="black"/>
</svg>
